<svg width="48" height="49" viewBox="0 0 48 49" fill="none" xmlns="http://www.w3.org/2000/svg">
<path d="M32.6804 4.84583C39.4604 4.84583 44.0004 9.60583 44.0004 16.6858V33.0258C44.0004 40.0858 39.4604 44.8458 32.6804 44.8458H15.3404C8.5604 44.8458 4.0004 40.0858 4.0004 33.0258V16.6858C4.0004 9.60583 8.5604 4.84583 15.3404 4.84583H32.6804ZM32.9604 22.4478C31.6404 22.4478 30.5604 23.5258 30.5604 24.8458C30.5604 26.1658 31.6404 27.2458 32.9604 27.2458C34.2804 27.2458 35.3404 26.1658 35.3404 24.8458C35.3404 23.5258 34.2804 22.4478 32.9604 22.4478ZM24.0004 22.4478C22.6804 22.4478 21.6004 23.5258 21.6004 24.8458C21.6004 26.1658 22.6804 27.2458 24.0004 27.2458C25.3204 27.2458 26.4004 26.1658 26.4004 24.8458C26.4004 23.5258 25.3204 22.4478 24.0004 22.4478ZM15.0404 22.4478C13.7204 22.4478 12.6404 23.5258 12.6404 24.8458C12.6404 26.1658 13.7204 27.2458 15.0404 27.2458C16.3604 27.2458 17.4404 26.1658 17.4404 24.8458C17.4404 23.5258 16.3604 22.4478 15.0404 22.4478Z" fill="#272042"/>
</svg>
