<svg width="276" height="263" viewBox="0 0 276 263" fill="none" xmlns="http://www.w3.org/2000/svg">
<path d="M136.778 0.690981C137.078 -0.230329 138.381 -0.230326 138.681 0.690985L170.509 98.6475C170.642 99.0595 171.026 99.3384 171.46 99.3384H274.457C275.426 99.3384 275.829 100.578 275.045 101.147L191.718 161.688C191.368 161.943 191.221 162.394 191.355 162.806L223.183 260.762C223.482 261.684 222.428 262.45 221.644 261.88L138.317 201.34C137.967 201.085 137.492 201.085 137.142 201.34L53.815 261.88C53.0313 262.45 51.9768 261.684 52.2762 260.762L84.1042 162.806C84.238 162.394 84.0914 161.943 83.7409 161.688L0.414131 101.147C-0.369583 100.578 0.0331951 99.3384 1.00192 99.3384H103.999C104.433 99.3384 104.817 99.0595 104.951 98.6475L136.778 0.690981Z" fill="#F7C531"/>
</svg>
